<svg width="45" height="45" viewBox="0 0 45 45" fill="none" xmlns="http://www.w3.org/2000/svg">
<path d="M0 20C0 10.5719 0 5.85786 2.92893 2.92893C5.85786 0 10.5719 0 20 0H25C34.4281 0 39.1421 0 42.0711 2.92893C45 5.85786 45 10.5719 45 20V25C45 34.4281 45 39.1421 42.0711 42.0711C39.1421 45 34.4281 45 25 45H20C10.5719 45 5.85786 45 2.92893 42.0711C0 39.1421 0 34.4281 0 25V20Z" fill="url(#paint0_linear_201_3242)"/>
<defs>
<linearGradient id="paint0_linear_201_3242" x1="22.5" y1="0" x2="22.5" y2="45" gradientUnits="userSpaceOnUse">
<stop stop-color="#E6F6FE"/>
<stop offset="1" stop-color="#E6F6FE" stop-opacity="0"/>
</linearGradient>
</defs>
</svg>
